<?xml version="1.0" encoding="utf-8"?>
<!-- Generator: Adobe Illustrator 19.0.0, SVG Export Plug-In . SVG Version: 6.00 Build 0)  -->
<svg version="1.1" id="Layer_2" xmlns="http://www.w3.org/2000/svg" xmlns:xlink="http://www.w3.org/1999/xlink" x="0px" y="0px"
	 viewBox="0 0 200 200" enable-background="new 0 0 200 200" xml:space="preserve">
<path id="XMLID_24_" fill="#FFFFFF" d="M301.7,31.7c0.2,6.5,1.9,12.5,4.6,17c-2.3,3.5-4.6,7-6.9,10.5c0.7,1.7,1.3,3.4,2,5.1
	c0.8,2.1,1.6,4.2,2.4,6.3c3.1-5,6.1-10,9.2-14.9c2.1,1.3,4.4,2,6.9,1.9c9.6-0.3,17.1-12.3,16.7-26.9c-0.4-14.6-8.5-26.2-18.1-25.9
	C308.8,5.1,301.3,17.1,301.7,31.7z M318.6,11.8c7.1-0.2,13.1,8.4,13.4,19.1c0.3,10.7-5.2,19.6-12.3,19.8
	c-7.1,0.2-13.1-8.4-13.4-19.1C306,20.8,311.5,12,318.6,11.8z"/>
<path id="XMLID_2_" fill="#FFFFFF" d="M291.7,88.2c-15.6,34.3-31.1,68.7-46.7,103c-0.8-2.5-1.8-6.4-1.7-11.3
	c0.1-5.9,1.8-10.3,2.8-12.7c8.7-21.8,14-33.3,14-33.3c4.4-9.5,6.9-14.9,10.3-22.8c3.6-8.4,5.9-14.3,10.5-24.2
	c2.2-4.8,4.1-8.7,5.3-11.2C288.1,79.9,289.9,84.1,291.7,88.2z"/>
<path id="XMLID_12_" fill="#FFFFFF" d="M248.2,43.9c7.8,12.3,20.8,18.1,28.9,12.9c1.2-0.8,2.2-1.7,3-2.8l59,132.9
	c0.1-0.3,0.1-0.7,0.2-1.2c0,0,0.1-0.9,0.2-1.8c0.4-5.9-1.1-12-1.1-12c-3-12.2-9-27.6-9-27.6c-4.6-11.8-2.1-6.3-10.5-28
	c-3.3-8.7-5-12.8-8.8-22.6c-3.1-8-7.6-19.5-13-33.6c-2.5-1.9-5-3.8-7.5-5.7l-6.5-8.6c0.7-6.2-1.1-13.7-5.6-20.7
	c-7.8-12.3-20.8-18.1-28.9-12.9C240.6,17.5,240.4,31.7,248.2,43.9z M296.9,68.6c1.2,1.6,0.9,3.9-0.7,5.1s-3.9,0.9-5.1-0.7
	c-1.2-1.6-0.9-3.9,0.7-5.1C293.4,66.6,295.7,67,296.9,68.6z M252.5,18.2c6-3.8,15.5,0.4,21.3,9.5c5.8,9.1,5.6,19.5-0.4,23.3
	c-6,3.8-15.5-0.5-21.3-9.5C246.3,32.4,246.5,22,252.5,18.2z"/>
<path id="XMLID_8_" fill="#FFFFFF" d="M262.5,129.3"/>
<path id="XMLID_14_" fill="#FFFFFF" d="M423.3,40.4c-7.2-9.2-17-14.9-27.9-14.9c-21.7,0-39.5,22.8-39.5,50.8v95.7
	c0,4.3,0.4,8.4,1.2,12.4h76.6c0.8-4,1.2-8.2,1.2-12.4V76.2C434.9,62.3,430.5,49.6,423.3,40.4z M419.5,144.9h-48.1
	c-0.6,0-1.1-0.5-1.1-1.1c0-0.6,0.5-1.1,1.1-1.1h48.1c0.6,0,1.1,0.5,1.1,1.1C420.5,144.4,420.1,144.9,419.5,144.9z M419.5,136.7
	h-48.1c-0.6,0-1.1-0.5-1.1-1.1c0-0.6,0.5-1.1,1.1-1.1h48.1c0.6,0,1.1,0.5,1.1,1.1C420.5,136.2,420.1,136.7,419.5,136.7z
	 M419.5,126.5h-48.1c-0.6,0-1.1-0.5-1.1-1.1s0.5-1.1,1.1-1.1h48.1c0.6,0,1.1,0.5,1.1,1.1S420.1,126.5,419.5,126.5z"/>
<path id="XMLID_18_" fill="#8A181B" d="M422.7,71.5c0,7.7-0.5,15.1-1.3,22c-6.8-1.4-15.7-2.6-26-2.6c-10.4,0-19.2,1.2-26,2.6
	c-0.3-2.8-0.7-6.5-1-10.7c-0.2-3.7-0.3-7.4-0.3-11.3c0-39.7,12.2-71.8,27.3-71.8S422.7,31.8,422.7,71.5z"/>
<polygon id="XMLID_3_" fill="#FFFFFF" points="410,29.9 407,23.9 401.2,27.2 405.9,22.5 401,18 406.9,21.1 409.7,15 408.6,21.6 
	415.2,22.3 408.6,23.3 "/>
<polygon id="XMLID_1_" fill="#FFFFFF" points="585.6,146 576.5,143.7 607,4.3 626.2,9.2 "/>
<polygon id="XMLID_4_" fill="#8A181B" points="607,4.3 601.8,28.2 619.6,32.8 626.6,9.3 "/>
<polygon id="XMLID_5_" fill="#8A181B" points="576.5,144.1 585.8,146.4 586.3,144.4 577,142 "/>
<polygon id="XMLID_9_" fill="#8A181B" points="579.5,143.7 570.4,186 582.7,144.5 "/>
<path id="XMLID_6_" fill="#FFFFFF" d="M558.3,195.7c-16.9-15.9-38.7-29.4-61.8-26.9c-4,0.4-7.9,1.3-11.8,1.6
	c-10.6,0.8-21.4-3.2-29.1-10.5c4.1,6.5,11.2,10.5,18.7,12.3c7.4,1.7,15.2,1.4,22.8,0.6c6.3-0.6,12.8-1.5,18.7,0.6
	c4.3,1.5,7.8,4.5,11.5,7.2c8.9,6.4,18.9,11.2,29.4,14.1"/>
<g id="XMLID_19_">
	<path id="XMLID_21_" fill="#FFFFFF" d="M96.4,80.9c-3,0-5.7,2.5-8.2,7.6c-2.5,5.1-3.8,10.6-3.8,16.5c0,5,1.6,7.4,4.7,7.4
		c3.2,0,6-2.6,8.2-7.8c2.4-5.5,3.6-11.1,3.6-16.7C100.8,83.2,99.4,80.9,96.4,80.9z"/>
	<path id="XMLID_40_" fill="#FFFFFF" d="M141,102.7c-1.7,0-3.1,0.6-4.4,1.9c-1.3,1.3-1.9,2.7-1.9,4.4c0,1.6,0.4,2.8,1.3,3.8
		s2,1.4,3.3,1.4c1.6,0,2.9-0.6,4.1-1.9c1.1-1.2,1.7-2.7,1.7-4.5c0-1.5-0.4-2.7-1.1-3.6C143.2,103.2,142.2,102.7,141,102.7z"/>
	<path id="XMLID_41_" fill="#FFFFFF" d="M132.2,88.2c1.1-1.2,1.7-2.7,1.7-4.5c0-1.5-0.4-2.7-1.1-3.6c-0.8-0.9-1.7-1.4-2.9-1.4
		c-1.7,0-3.1,0.6-4.4,1.9c-1.3,1.3-1.9,2.7-1.9,4.4c0,1.6,0.4,2.8,1.3,3.8c0.8,0.9,2,1.4,3.3,1.4C129.8,90,131.1,89.4,132.2,88.2z"
		/>
	<path id="XMLID_44_" fill="#FFFFFF" d="M180.5,103.3l3-2.2l-3-2.3l2.9-2.4l-3.1-2.1l2.8-2.5l-3.2-2l2.6-2.7l-3.3-1.8l2.5-2.8
		l-3.4-1.6l2.3-3l-3.5-1.4l2.1-3.1l-3.6-1.2l1.9-3.2l-3.6-1l1.8-3.3L172,64l1.6-3.4l-3.7-0.6l1.4-3.5l-3.7-0.4l1.2-3.6l-3.7-0.2
		l1-3.6l-3.8,0.1l0.8-3.7l-3.7,0.3l0.6-3.7l-3.7,0.5l0.4-3.7l-3.7,0.7l0.1-3.7l-3.6,0.9l-0.1-3.8l-3.6,1.1l-0.3-3.7l-3.5,1.3
		l-0.5-3.7l-3.4,1.5l-0.7-3.7l-3.4,1.7l-0.9-3.6l-3.3,1.9l-1.1-3.6l-3.1,2l-1.3-3.5l-3,2.2l-1.5-3.4l-2.9,2.4l-1.7-3.4l-2.8,2.5
		l-1.9-3.3l-2.6,2.7l-2-3.1l-2.5,2.8l-2.2-3l-2.3,3l-2.4-2.9l-2.1,3.1l-2.5-2.8l-2,3.2l-2.7-2.6l-1.8,3.3l-2.8-2.5l-1.6,3.4l-3-2.3
		l-1.4,3.5l-3.1-2.1l-1.2,3.6L69,22.4l-1,3.6l-3.3-1.8L64,28l-3.4-1.6L60,30.1l-3.5-1.4l-0.4,3.7l-3.6-1.2L52.4,35l-3.6-1l0.1,3.8
		L45.2,37l0.3,3.7l-3.7-0.6l0.5,3.7l-3.7-0.4l0.7,3.7l-3.7-0.1l0.9,3.6l-3.8,0.1l1.1,3.6l-3.7,0.3l1.3,3.5l-3.7,0.5l1.5,3.4
		l-3.7,0.7l1.7,3.4L23.3,67l1.9,3.3l-3.6,1.1l2,3.1l-3.5,1.3l2.2,3l-3.4,1.5l2.4,2.9l-3.4,1.7l2.5,2.8l-3.3,1.9l2.7,2.6l-3.1,2
		l2.8,2.5l-3,2.2l3,2.3l-2.9,2.4l3.1,2.1l-2.8,2.5l3.2,2l-2.6,2.7l3.3,1.8l-2.5,2.8l3.4,1.6l-2.3,3l3.5,1.4l-2.1,3.1l3.6,1.2
		l-1.9,3.2l3.6,1l-1.8,3.3L28,136l-1.6,3.4l3.7,0.6l-1.4,3.5l3.7,0.4l-1.2,3.6l3.7,0.2l-1,3.6l3.8-0.1l-0.8,3.7l3.7-0.3l-0.6,3.7
		l3.7-0.5l-0.4,3.7l3.7-0.7l-0.1,3.7l3.6-0.9l0.1,3.8l3.6-1.1l0.3,3.7l3.5-1.3l0.5,3.7l3.4-1.5l0.7,3.7l3.4-1.7l0.9,3.6l3.3-1.9
		l1.1,3.6l3.1-2l1.3,3.5l3-2.2l1.5,3.4l2.9-2.4l1.7,3.4l2.8-2.5l1.9,3.3l2.6-2.7l2,3.1l2.5-2.8l2.2,3l2.3-3l2.4,2.9l2.1-3.1l2.5,2.8
		l2-3.2l2.7,2.6l1.8-3.3l2.8,2.5l1.6-3.4l3,2.3l1.4-3.5l3.1,2.1l1.2-3.6l3.2,1.9l1-3.6l3.3,1.8l0.8-3.7l3.4,1.6l0.6-3.7l3.5,1.4
		l0.4-3.7l3.6,1.2l0.2-3.7l3.6,1l-0.1-3.8l3.7,0.8l-0.3-3.7l3.7,0.6l-0.5-3.7l3.7,0.4l-0.7-3.7l3.7,0.1l-0.9-3.6l3.8-0.1l-1.1-3.6
		l3.7-0.3l-1.3-3.5l3.7-0.5l-1.5-3.4l3.7-0.7l-1.7-3.4l3.6-0.9l-1.9-3.3l3.6-1.1l-2-3.1l3.5-1.3l-2.2-3l3.4-1.5l-2.4-2.9l3.4-1.7
		l-2.5-2.8l3.3-1.9l-2.7-2.6l3.1-2L180.5,103.3z M52.6,105h-1.2c-0.6,0-1,0.1-1.2,0.2c-0.2,0.1-0.4,0.4-0.7,0.8l-0.1,0.3h-0.4
		l1.6-3.7h3.4h1c1.3,0,2.4-0.3,3.3-0.8c0,0,0,0,0.1-0.1l-0.1,0.2l-0.2,0.4c-0.7,1.7-2.1,2.6-4.2,2.6H52.6z M79.2,91.6
		c-3.8,5.8-10.1,12.5-18.9,20.2l-1.3,1.2h9.3l1.4,0c1.6,0,2.6-0.1,3-0.4c0.5-0.3,1.1-1.2,2.1-2.8c0-0.1,0.1-0.2,0.2-0.3h1.3
		c-1.4,2.4-2.4,4.4-3,6.2H53.9l1.2-2.3c2.4-1.4,5.2-3.5,8.3-6.2c3.1-2.7,5.7-5.4,7.9-8c2.2-2.6,3.9-5.2,5.3-7.7c1.4-2.6,2-4.6,2-6.1
		c0-1.5-0.5-2.8-1.5-3.9s-2.3-1.6-3.8-1.6c-1.7,0-3.2,0.7-4.4,2.2c-1.2,1.5-2,3.4-2.3,5.8c-1-0.6-1.5-1.5-1.5-2.7
		c0-1.7,1.1-3.3,3.3-4.6c2.2-1.3,4.8-2,7.7-2c1.7,0,3.1,0.6,4.2,1.7c1.1,1.2,1.6,2.7,1.6,4.6C81.8,86.6,80.9,88.9,79.2,91.6z
		 M101.8,96.6c-1.1,3.9-2.7,7.6-4.6,11.2c-2.9,5.4-6.1,8.1-9.6,8.1c-1.8,0-3.2-0.8-4.2-2.3s-1.5-3.7-1.5-6.5
		c0-6.1,1.6-12.3,4.9-18.6c1.7-3.3,3.6-5.9,5.6-7.7s4-2.7,6-2.7c3.4,0,5.1,2.6,5.1,7.8C103.5,89.1,102.9,92.6,101.8,96.6z
		 M123.5,90.5c-1.1-1.1-1.6-2.5-1.6-4.1c0-2.3,1-4.5,2.9-6.6c1.9-2,4-3.1,6.2-3.1c1.3,0,2.5,0.5,3.4,1.6s1.4,2.4,1.4,3.9
		c0,2.2-1,4.3-2.8,6.6c-1.9,2.2-3.8,3.3-5.6,3.3C125.8,92.2,124.5,91.6,123.5,90.5z M124.6,115.5l-1.1-0.6l20.9-37.3l1,0.5
		L124.6,115.5z M144.1,112.9c-1.9,2.2-3.8,3.3-5.6,3.3c-1.5,0-2.8-0.6-3.8-1.7c-1.1-1.1-1.6-2.5-1.6-4.1c0-2.3,1-4.5,2.9-6.5
		s4-3.1,6.2-3.1c1.3,0,2.5,0.5,3.4,1.6c0.9,1.1,1.4,2.3,1.4,3.9C147,108.5,146,110.7,144.1,112.9z"/>
</g>
</svg>
