<?xml version="1.0" encoding="utf-8"?>
<!-- Generator: Adobe Illustrator 19.0.0, SVG Export Plug-In . SVG Version: 6.00 Build 0)  -->
<svg version="1.1" xmlns="http://www.w3.org/2000/svg" xmlns:xlink="http://www.w3.org/1999/xlink" x="0px" y="0px"
	 viewBox="0 0 1280 56" enable-background="new 0 0 1280 56" xml:space="preserve">
<g id="rdeÄe">
	<circle id="XMLID_4_" fill="#8A181B" cx="1273.6" cy="37.7" r="4.3"/>
	<circle id="XMLID_10_" fill="#8A181B" cx="1193.6" cy="37.7" r="4.3"/>
	<circle id="XMLID_13_" fill="#8A181B" cx="1094.6" cy="27.7" r="4.3"/>
	<circle id="XMLID_21_" fill="#8A181B" cx="1014.6" cy="36.7" r="4.3"/>
	<circle id="XMLID_27_" fill="#8A181B" cx="954.6" cy="26.7" r="4.3"/>
	<circle id="XMLID_32_" fill="#8A181B" cx="924.6" cy="36.7" r="4.3"/>
	<circle id="XMLID_37_" fill="#8A181B" cx="854.6" cy="25.7" r="4.3"/>
	<circle id="XMLID_40_" fill="#8A181B" cx="800.6" cy="25.7" r="4.3"/>
	<circle id="XMLID_46_" fill="#8A181B" cx="744.6" cy="34.7" r="4.3"/>
	<circle id="XMLID_48_" fill="#8A181B" cx="694.6" cy="41.7" r="4.3"/>
	<circle id="XMLID_50_" fill="#8A181B" cx="594.6" cy="23.7" r="4.3"/>
	<circle id="XMLID_55_" fill="#8A181B" cx="524.6" cy="35.7" r="4.3"/>
	<circle id="XMLID_61_" fill="#8A181B" cx="454.6" cy="35.7" r="4.3"/>
	<circle id="XMLID_64_" fill="#8A181B" cx="374.6" cy="42.7" r="4.3"/>
	<circle id="XMLID_68_" fill="#8A181B" cx="294.6" cy="25.7" r="4.3"/>
	<circle id="XMLID_73_" fill="#8A181B" cx="224.6" cy="37.7" r="4.3"/>
	<circle id="XMLID_83_" fill="#8A181B" cx="154.6" cy="27.7" r="4.3"/>
	<circle id="XMLID_96_" fill="#8A181B" cx="94.6" cy="46.7" r="4.3"/>
	<circle id="XMLID_98_" fill="#8A181B" cx="34.6" cy="24.7" r="4.3"/>
</g>
<g id="modre">
	<circle id="XMLID_113_" fill="#00012E" cx="1253.6" cy="45.7" r="4.3"/>
	<circle id="XMLID_120_" fill="#00012E" cx="1163.6" cy="28.7" r="4.3"/>
	<circle id="XMLID_124_" fill="#00012E" cx="1074.6" cy="43.7" r="4.3"/>
	<circle id="XMLID_125_" fill="#00012E" cx="994.6" cy="35.7" r="4.3"/>
	<circle id="XMLID_129_" fill="#00012E" cx="944.6" cy="24.7" r="4.3"/>
	<circle id="XMLID_143_" fill="#00012E" cx="904.6" cy="35.7" r="4.3"/>
	<circle id="XMLID_147_" fill="#00012E" cx="844.6" cy="25.7" r="4.3"/>
	<circle id="XMLID_152_" fill="#00012E" cx="784.6" cy="35.7" r="4.3"/>
	<circle id="XMLID_163_" fill="#00012E" cx="724.6" cy="43.7" r="4.3"/>
	<circle id="XMLID_168_" fill="#00012E" cx="644.6" cy="35.7" r="4.3"/>
	<circle id="XMLID_169_" fill="#00012E" cx="564.6" cy="23.7" r="4.3"/>
	<circle id="XMLID_170_" fill="#00012E" cx="508.6" cy="40.7" r="4.3"/>
	<circle id="XMLID_171_" fill="#00012E" cx="444.6" cy="26.7" r="4.3"/>
	<circle id="XMLID_172_" fill="#00012E" cx="354.6" cy="33.7" r="4.3"/>
	<circle id="XMLID_174_" fill="#00012E" cx="178.6" cy="23.7" r="4.3"/>
	<circle id="XMLID_175_" fill="#00012E" cx="124.6" cy="35.7" r="4.3"/>
	<circle id="XMLID_176_" fill="#00012E" cx="64.6" cy="24.7" r="4.3"/>
	<circle id="XMLID_177_" fill="#00012E" cx="10.6" cy="46.7" r="4.3"/>
	<circle id="XMLID_173_" fill="#00012E" cx="284.6" cy="35.7" r="4.3"/>
</g>
<g id="rumene">
	<circle id="XMLID_179_" fill="#8B6700" cx="1213.6" cy="36.7" r="4.3"/>
	<circle id="XMLID_180_" fill="#8B6700" cx="1114.6" cy="36.7" r="4.3"/>
	<circle id="XMLID_181_" fill="#8B6700" cx="1054.6" cy="27.7" r="4.3"/>
	<circle id="XMLID_182_" fill="#8B6700" cx="974.6" cy="25.7" r="4.3"/>
	<circle id="XMLID_183_" fill="#8B6700" cx="934.6" cy="36.7" r="4.3"/>
	<circle id="XMLID_184_" fill="#8B6700" cx="874.6" cy="36.7" r="4.3"/>
	<circle id="XMLID_185_" fill="#8B6700" cx="814.6" cy="36.7" r="4.3"/>
	<circle id="XMLID_186_" fill="#8B6700" cx="754.6" cy="21.7" r="4.3"/>
	<circle id="XMLID_187_" fill="#8B6700" cx="709.6" cy="25.7" r="4.3"/>
	<circle id="XMLID_188_" fill="#8B6700" cx="624.6" cy="47.7" r="4.3"/>
	<circle id="XMLID_189_" fill="#8B6700" cx="534.6" cy="26.7" r="4.3"/>
	<circle id="XMLID_190_" fill="#8B6700" cx="474.6" cy="36.7" r="4.3"/>
	<circle id="XMLID_191_" fill="#8B6700" cx="384.6" cy="29.7" r="4.3"/>
	<circle id="XMLID_192_" fill="#8B6700" cx="344.6" cy="28.7" r="4.3"/>
	<circle id="XMLID_193_" fill="#8B6700" cx="236.6" cy="43.7" r="4.3"/>
	<circle id="XMLID_194_" fill="#8B6700" cx="164.6" cy="35.7" r="4.3"/>
	<circle id="XMLID_195_" fill="#8B6700" cx="104.6" cy="35.7" r="4.3"/>
	<circle id="XMLID_196_" fill="#8B6700" cx="54.6" cy="37.7" r="4.3"/>
</g>
<g id="Layer_1">
	<rect id="XMLID_1_" x="897.6" y="-199.7" fill="#8A181B" width="147.8" height="56.6"/>
	<rect id="XMLID_2_" x="1071" y="-199.7" fill="#001700" width="162.5" height="31.6"/>
	<line id="XMLID_6_" fill="none" stroke="#000000" stroke-miterlimit="10" x1="10.5" y1="1" x2="10.5" y2="42"/>
	<line id="XMLID_8_" fill="none" stroke="#000000" stroke-miterlimit="10" x1="24.5" y1="1" x2="24.5" y2="31"/>
	<line id="XMLID_9_" fill="none" stroke="#000000" stroke-miterlimit="10" x1="34.5" y1="1" x2="34.5" y2="20"/>
	<line id="XMLID_11_" fill="none" stroke="#000000" stroke-miterlimit="10" x1="54.5" y1="1" x2="54.5" y2="31"/>
	<line id="XMLID_12_" fill="none" stroke="#000000" stroke-miterlimit="10" x1="64.5" y1="1" x2="64.5" y2="20"/>
	<line id="XMLID_16_" fill="none" stroke="#000000" stroke-miterlimit="10" x1="94.5" y1="1" x2="94.5" y2="42"/>
	<line id="XMLID_17_" fill="none" stroke="#000000" stroke-miterlimit="10" x1="104.5" y1="1" x2="104.5" y2="31"/>
	<line id="XMLID_18_" fill="none" stroke="#000000" stroke-miterlimit="10" x1="114.5" y1="1" x2="114.5" y2="22"/>
	<line id="XMLID_19_" fill="none" stroke="#000000" stroke-miterlimit="10" x1="124.5" y1="1" x2="124.5" y2="31"/>
	<line id="XMLID_22_" fill="none" stroke="#000000" stroke-miterlimit="10" x1="154.5" y1="1" x2="154.5" y2="22"/>
	<line id="XMLID_23_" fill="none" stroke="#000000" stroke-miterlimit="10" x1="164.5" y1="1" x2="164.5" y2="31"/>
	<line id="XMLID_24_" fill="none" stroke="#000000" stroke-miterlimit="10" x1="178.5" y1="1" x2="178.5" y2="20"/>
	<line id="XMLID_26_" fill="none" stroke="#000000" stroke-miterlimit="10" x1="194.5" y1="1" x2="194.5" y2="31"/>
	<line id="XMLID_29_" fill="none" stroke="#000000" stroke-miterlimit="10" x1="224.5" y1="1" x2="224.5" y2="31"/>
	<line id="XMLID_30_" fill="none" stroke="#000000" stroke-miterlimit="10" x1="236.5" y1="1" x2="236.5" y2="38"/>
	<line id="XMLID_34_" fill="none" stroke="#000000" stroke-miterlimit="10" x1="274.5" y1="1" x2="274.5" y2="31"/>
	<line id="XMLID_35_" fill="none" stroke="#000000" stroke-miterlimit="10" x1="284.5" y1="1" x2="284.5" y2="31"/>
	<line id="XMLID_36_" fill="none" stroke="#000000" stroke-miterlimit="10" x1="294.5" y1="1" x2="294.5" y2="20"/>
	<line id="XMLID_39_" fill="none" stroke="#000000" stroke-miterlimit="10" x1="324.5" y1="1" x2="324.5" y2="20"/>
	<line id="XMLID_41_" fill="none" stroke="#000000" stroke-miterlimit="10" x1="344.5" y1="1" x2="344.5" y2="22"/>
	<line id="XMLID_42_" fill="none" stroke="#000000" stroke-miterlimit="10" x1="354.5" y1="1" x2="354.5" y2="31"/>
	<line id="XMLID_44_" fill="none" stroke="#000000" stroke-miterlimit="10" x1="374.5" y1="1" x2="374.5" y2="38"/>
	<line id="XMLID_45_" fill="none" stroke="#000000" stroke-miterlimit="10" x1="384.5" y1="1" x2="384.5" y2="23"/>
	<line id="XMLID_49_" fill="none" stroke="#000000" stroke-miterlimit="10" x1="424.5" y1="1" x2="424.5" y2="38"/>
	<line id="XMLID_51_" fill="none" stroke="#000000" stroke-miterlimit="10" x1="444.5" y1="1" x2="444.5" y2="22"/>
	<line id="XMLID_52_" fill="none" stroke="#000000" stroke-miterlimit="10" x1="454.5" y1="1" x2="454.5" y2="31"/>
	<line id="XMLID_54_" fill="none" stroke="#000000" stroke-miterlimit="10" x1="474.5" y1="1" x2="474.5" y2="31"/>
	<line id="XMLID_56_" fill="none" stroke="#000000" stroke-miterlimit="10" x1="494.5" y1="1" x2="494.5" y2="31"/>
	<line id="XMLID_58_" fill="none" stroke="#000000" stroke-miterlimit="10" x1="508.5" y1="1" x2="508.5" y2="36"/>
	<line id="XMLID_59_" fill="none" stroke="#000000" stroke-miterlimit="10" x1="524.5" y1="1" x2="524.5" y2="31"/>
	<line id="XMLID_60_" fill="none" stroke="#000000" stroke-miterlimit="10" x1="534.5" y1="1" x2="534.5" y2="20"/>
	<line id="XMLID_63_" fill="none" stroke="#000000" stroke-miterlimit="10" x1="564.5" y1="1" x2="564.5" y2="20"/>
	<line id="XMLID_66_" fill="none" stroke="#000000" stroke-miterlimit="10" x1="594.5" y1="1" x2="594.5" y2="20"/>
	<line id="XMLID_69_" fill="none" stroke="#000000" stroke-miterlimit="10" x1="624.5" y1="1" x2="624.5" y2="42"/>
	<line id="XMLID_71_" fill="none" stroke="#000000" stroke-miterlimit="10" x1="644.5" y1="1" x2="644.5" y2="31"/>
	<line id="XMLID_75_" fill="none" stroke="#000000" stroke-miterlimit="10" x1="684.5" y1="1" x2="684.5" y2="31"/>
	<line id="XMLID_76_" fill="none" stroke="#000000" stroke-miterlimit="10" x1="694.5" y1="1" x2="694.5" y2="38"/>
	<line id="XMLID_78_" fill="none" stroke="#000000" stroke-miterlimit="10" x1="709.5" y1="1" x2="709.5" y2="20"/>
	<line id="XMLID_79_" fill="none" stroke="#000000" stroke-miterlimit="10" x1="724.5" y1="1" x2="724.5" y2="38"/>
	<line id="XMLID_81_" fill="none" stroke="#000000" stroke-miterlimit="10" x1="744.5" y1="1" x2="744.5" y2="31"/>
	<line id="XMLID_82_" fill="none" stroke="#000000" stroke-miterlimit="10" x1="754.5" y1="1" x2="754.5" y2="16"/>
	<line id="XMLID_85_" fill="none" stroke="#000000" stroke-miterlimit="10" x1="784.5" y1="1" x2="784.5" y2="31"/>
	<line id="XMLID_87_" fill="none" stroke="#000000" stroke-miterlimit="10" x1="800.5" y1="1" x2="800.5" y2="20"/>
	<line id="XMLID_88_" fill="none" stroke="#000000" stroke-miterlimit="10" x1="814.5" y1="1" x2="814.5" y2="31"/>
	<line id="XMLID_89_" fill="none" stroke="#000000" stroke-miterlimit="10" x1="824.5" y1="1" x2="824.5" y2="20"/>
	<line id="XMLID_91_" fill="none" stroke="#000000" stroke-miterlimit="10" x1="844.5" y1="1" x2="844.5" y2="20"/>
	<line id="XMLID_92_" fill="none" stroke="#000000" stroke-miterlimit="10" x1="854.5" y1="1" x2="854.5" y2="20"/>
	<line id="XMLID_94_" fill="none" stroke="#000000" stroke-miterlimit="10" x1="874.5" y1="1" x2="874.5" y2="31"/>
	<line id="XMLID_97_" fill="none" stroke="#000000" stroke-miterlimit="10" x1="904.5" y1="1" x2="904.5" y2="31"/>
	<line id="XMLID_99_" fill="none" stroke="#000000" stroke-miterlimit="10" x1="924.5" y1="1" x2="924.5" y2="31"/>
	<line id="XMLID_100_" fill="none" stroke="#000000" stroke-miterlimit="10" x1="934.5" y1="1" x2="934.5" y2="31"/>
	<line id="XMLID_101_" fill="none" stroke="#000000" stroke-miterlimit="10" x1="944.5" y1="1" x2="944.5" y2="20"/>
	<line id="XMLID_102_" fill="none" stroke="#000000" stroke-miterlimit="10" x1="954.5" y1="1" x2="954.5" y2="20"/>
	<line id="XMLID_104_" fill="none" stroke="#000000" stroke-miterlimit="10" x1="974.5" y1="1" x2="974.5" y2="20"/>
	<line id="XMLID_106_" fill="none" stroke="#000000" stroke-miterlimit="10" x1="994.5" y1="1" x2="994.5" y2="31"/>
	<line id="XMLID_108_" fill="none" stroke="#000000" stroke-miterlimit="10" x1="1014.5" y1="1" x2="1014.5" y2="31"/>
	<line id="XMLID_110_" fill="none" stroke="#000000" stroke-miterlimit="10" x1="1034.5" y1="1" x2="1034.5" y2="31"/>
	<line id="XMLID_112_" fill="none" stroke="#000000" stroke-miterlimit="10" x1="1054.5" y1="1" x2="1054.5" y2="22"/>
	<line id="XMLID_114_" fill="none" stroke="#000000" stroke-miterlimit="10" x1="1074.5" y1="1" x2="1074.5" y2="38"/>
	<line id="XMLID_116_" fill="none" stroke="#000000" stroke-miterlimit="10" x1="1094.5" y1="1" x2="1094.5" y2="22"/>
	<line id="XMLID_118_" fill="none" stroke="#000000" stroke-miterlimit="10" x1="1114.5" y1="1" x2="1114.5" y2="31"/>
	<line id="XMLID_122_" fill="none" stroke="#000000" stroke-miterlimit="10" x1="1153.5" y1="1" x2="1153.5" y2="31"/>
	<line id="XMLID_123_" fill="none" stroke="#000000" stroke-miterlimit="10" x1="1163.5" y1="1" x2="1163.5" y2="23"/>
	<line id="XMLID_126_" fill="none" stroke="#000000" stroke-miterlimit="10" x1="1193.5" y1="1" x2="1193.5" y2="31"/>
	<line id="XMLID_128_" fill="none" stroke="#000000" stroke-miterlimit="10" x1="1213.5" y1="1" x2="1213.5" y2="31"/>
	<line id="XMLID_130_" fill="none" stroke="#000000" stroke-miterlimit="10" x1="1233.5" y1="1" x2="1233.5" y2="20"/>
	<line id="XMLID_132_" fill="none" stroke="#000000" stroke-miterlimit="10" x1="1253.5" y1="1" x2="1253.5" y2="42"/>
	<line id="XMLID_134_" fill="none" stroke="#000000" stroke-miterlimit="10" x1="1273.5" y1="1" x2="1273.5" y2="31"/>
	<circle id="XMLID_14_" stroke="#000000" stroke-miterlimit="10" cx="1034.2" cy="28.2" r="2.8"/>
	<circle id="XMLID_31_" stroke="#000000" stroke-miterlimit="10" cx="1233.2" cy="18.2" r="2.8"/>
	<circle id="XMLID_33_" stroke="#000000" stroke-miterlimit="10" cx="494.2" cy="31.2" r="2.8"/>
	<circle id="XMLID_38_" stroke="#000000" stroke-miterlimit="10" cx="424.2" cy="38.2" r="2.8"/>
	<circle id="XMLID_43_" stroke="#000000" stroke-miterlimit="10" cx="324.2" cy="22.2" r="2.8"/>
	<circle id="XMLID_47_" stroke="#000000" stroke-miterlimit="10" cx="274.2" cy="31.2" r="2.8"/>
	<circle id="XMLID_62_" stroke="#000000" stroke-miterlimit="10" cx="194.2" cy="34.2" r="2.8"/>
	<circle id="XMLID_53_" stroke="#000000" stroke-miterlimit="10" cx="114.2" cy="22.2" r="2.8"/>
	<circle id="XMLID_57_" stroke="#000000" stroke-miterlimit="10" cx="24.2" cy="31.2" r="2.8"/>
	<circle id="XMLID_25_" stroke="#000000" stroke-miterlimit="10" cx="824.2" cy="18.2" r="2.8"/>
	<circle id="XMLID_65_" stroke="#000000" stroke-miterlimit="10" cx="1153.2" cy="34.2" r="2.8"/>
	<circle id="XMLID_28_" stroke="#000000" stroke-miterlimit="10" cx="684.2" cy="31.2" r="2.8"/>
	<path id="XMLID_3_" stroke="#000000" stroke-width="0.5" stroke-miterlimit="10" d="M855.7,22.4c-0.2-0.1-0.6-0.2-1.1-0.2
		c-0.5,0-0.9,0.1-1.1,0.2c0-0.9,0-1.8,0-2.7h2.2V22.4z"/>
	<path id="XMLID_7_" stroke="#000000" stroke-width="0.5" stroke-miterlimit="10" d="M875.6,32.4c-0.2-0.1-0.6-0.2-1.1-0.2
		c-0.5,0-0.9,0.1-1.1,0.2c0-0.9,0-1.8,0-2.7h2.2V32.4z"/>
	<path id="XMLID_86_" stroke="#000000" stroke-width="0.5" stroke-miterlimit="10" d="M845.6,21.4c-0.2-0.1-0.6-0.2-1.1-0.2
		c-0.5,0-0.9,0.1-1.1,0.2c0-0.9,0-1.8,0-2.7h2.2V21.4z"/>
	<path id="XMLID_90_" stroke="#000000" stroke-width="0.5" stroke-miterlimit="10" d="M815.6,32.4c-0.2-0.1-0.6-0.2-1.1-0.2
		c-0.5,0-0.9,0.1-1.1,0.2c0-0.9,0-1.8,0-2.7h2.2V32.4z"/>
	<path id="XMLID_93_" stroke="#000000" stroke-width="0.5" stroke-miterlimit="10" d="M801.6,21.4c-0.2-0.1-0.6-0.2-1.1-0.2
		c-0.5,0-0.9,0.1-1.1,0.2c0-0.9,0-1.8,0-2.7h2.2V21.4z"/>
	<path id="XMLID_95_" stroke="#000000" stroke-width="0.5" stroke-miterlimit="10" d="M785.6,32.4c-0.2-0.1-0.6-0.2-1.1-0.2
		c-0.5,0-0.9,0.1-1.1,0.2c0-0.9,0-1.8,0-2.7h2.2V32.4z"/>
	<path id="XMLID_103_" stroke="#000000" stroke-width="0.5" stroke-miterlimit="10" d="M755.6,17.4c-0.2-0.1-0.6-0.2-1.1-0.2
		c-0.5,0-0.9,0.1-1.1,0.2c0-0.9,0-1.8,0-2.7h2.2V17.4z"/>
	<path id="XMLID_105_" stroke="#000000" stroke-width="0.5" stroke-miterlimit="10" d="M745.6,32.4c-0.2-0.1-0.6-0.2-1.1-0.2
		c-0.5,0-0.9,0.1-1.1,0.2c0-0.9,0-1.8,0-2.7h2.2V32.4z"/>
	<path id="XMLID_107_" stroke="#000000" stroke-width="0.5" stroke-miterlimit="10" d="M725.6,39.4c-0.2-0.1-0.6-0.2-1.1-0.2
		c-0.5,0-0.9,0.1-1.1,0.2c0-0.9,0-1.8,0-2.7h2.2V39.4z"/>
	<path id="XMLID_109_" stroke="#000000" stroke-width="0.5" stroke-miterlimit="10" d="M710.6,21.4c-0.2-0.1-0.6-0.2-1.1-0.2
		c-0.5,0-0.9,0.1-1.1,0.2c0-0.9,0-1.8,0-2.7h2.2V21.4z"/>
	<path id="XMLID_111_" stroke="#000000" stroke-width="0.5" stroke-miterlimit="10" d="M695.6,38c-0.2-0.1-0.6-0.2-1.1-0.2
		c-0.5,0-0.9,0.1-1.1,0.2c0-0.9,0-1.8,0-2.7h2.2V38z"/>
	<path id="XMLID_115_" stroke="#000000" stroke-width="0.5" stroke-miterlimit="10" d="M645.6,32.4c-0.2-0.1-0.6-0.2-1.1-0.2
		c-0.5,0-0.9,0.1-1.1,0.2c0-0.9,0-1.8,0-2.7h2.2V32.4z"/>
	<path id="XMLID_137_" stroke="#000000" stroke-width="0.5" stroke-miterlimit="10" d="M625.6,43.4c-0.2-0.1-0.6-0.2-1.1-0.2
		c-0.5,0-0.9,0.1-1.1,0.2c0-0.9,0-1.8,0-2.7h2.2V43.4z"/>
	<path id="XMLID_138_" stroke="#000000" stroke-width="0.5" stroke-miterlimit="10" d="M595.6,20.2c-0.2-0.1-0.6-0.2-1.1-0.2
		c-0.5,0-0.9,0.1-1.1,0.2c0-0.9,0-1.8,0-2.7h2.2V20.2z"/>
	<path id="XMLID_139_" stroke="#000000" stroke-width="0.5" stroke-miterlimit="10" d="M565.6,21.4c-0.2-0.1-0.6-0.2-1.1-0.2
		c-0.5,0-0.9,0.1-1.1,0.2c0-0.9,0-1.8,0-2.7h2.2V21.4z"/>
	<path id="XMLID_140_" stroke="#000000" stroke-width="0.5" stroke-miterlimit="10" d="M535.6,22.4c-0.2-0.1-0.6-0.2-1.1-0.2
		c-0.5,0-0.9,0.1-1.1,0.2c0-0.9,0-1.8,0-2.7h2.2V22.4z"/>
	<path id="XMLID_141_" stroke="#000000" stroke-width="0.5" stroke-miterlimit="10" d="M509.6,37.4c-0.2-0.1-0.6-0.2-1.1-0.2
		c-0.5,0-0.9,0.1-1.1,0.2c0-0.9,0-1.8,0-2.7h2.2V37.4z"/>
	<path id="XMLID_142_" stroke="#000000" stroke-width="0.5" stroke-miterlimit="10" d="M525.6,32.4c-0.2-0.1-0.6-0.2-1.1-0.2
		c-0.5,0-0.9,0.1-1.1,0.2c0-0.9,0-1.8,0-2.7h2.2V32.4z"/>
	<path id="XMLID_144_" stroke="#000000" stroke-width="0.5" stroke-miterlimit="10" d="M455.6,32.4c-0.2-0.1-0.6-0.2-1.1-0.2
		c-0.5,0-0.9,0.1-1.1,0.2c0-0.9,0-1.8,0-2.7h2.2V32.4z"/>
	<path id="XMLID_145_" stroke="#000000" stroke-width="0.5" stroke-miterlimit="10" d="M475.6,32.4c-0.2-0.1-0.6-0.2-1.1-0.2
		c-0.5,0-0.9,0.1-1.1,0.2c0-0.9,0-1.8,0-2.7h2.2V32.4z"/>
	<path id="XMLID_146_" stroke="#000000" stroke-width="0.5" stroke-miterlimit="10" d="M445.6,23.4c-0.2-0.1-0.6-0.2-1.1-0.2
		c-0.5,0-0.9,0.1-1.1,0.2c0-0.9,0-1.8,0-2.7h2.2V23.4z"/>
	<path id="XMLID_153_" stroke="#000000" stroke-width="0.5" stroke-miterlimit="10" d="M295.6,21.4c-0.2-0.1-0.6-0.2-1.1-0.2
		c-0.5,0-0.9,0.1-1.1,0.2c0-0.9,0-1.8,0-2.7h2.2V21.4z"/>
	<path id="XMLID_154_" stroke="#000000" stroke-width="0.5" stroke-miterlimit="10" d="M285.6,32.4c-0.2-0.1-0.6-0.2-1.1-0.2
		c-0.5,0-0.9,0.1-1.1,0.2c0-0.9,0-1.8,0-2.7h2.2V32.4z"/>
	<path id="XMLID_155_" stroke="#000000" stroke-width="0.5" stroke-miterlimit="10" d="M237.6,39.4c-0.2-0.1-0.6-0.2-1.1-0.2
		c-0.5,0-0.9,0.1-1.1,0.2c0-0.9,0-1.8,0-2.7h2.2V39.4z"/>
	<path id="XMLID_156_" stroke="#000000" stroke-width="0.5" stroke-miterlimit="10" d="M225.6,33.7c-0.2-0.1-0.6-0.2-1.1-0.2
		c-0.5,0-0.9,0.1-1.1,0.2c0-0.9,0-1.8,0-2.7h2.2V33.7z"/>
	<path id="XMLID_157_" stroke="#000000" stroke-width="0.5" stroke-miterlimit="10" d="M179.6,21.4c-0.2-0.1-0.6-0.2-1.1-0.2
		c-0.5,0-0.9,0.1-1.1,0.2c0-0.9,0-1.8,0-2.7h2.2V21.4z"/>
	<path id="XMLID_158_" stroke="#000000" stroke-width="0.5" stroke-miterlimit="10" d="M165.6,31.2c-0.2-0.1-0.6-0.2-1.1-0.2
		c-0.5,0-0.9,0.1-1.1,0.2c0-0.9,0-1.8,0-2.7h2.2V31.2z"/>
	<path id="XMLID_159_" stroke="#000000" stroke-width="0.5" stroke-miterlimit="10" d="M155.6,23.7c-0.2-0.1-0.6-0.2-1.1-0.2
		c-0.5,0-0.9,0.1-1.1,0.2c0-0.9,0-1.8,0-2.7h2.2V23.7z"/>
	<path id="XMLID_160_" stroke="#000000" stroke-width="0.5" stroke-miterlimit="10" d="M125.6,32.5c-0.2-0.1-0.6-0.2-1.1-0.2
		c-0.5,0-0.9,0.1-1.1,0.2c0-0.9,0-1.8,0-2.7h2.2V32.5z"/>
	<path id="XMLID_161_" stroke="#000000" stroke-width="0.5" stroke-miterlimit="10" d="M105.6,32.4c-0.2-0.1-0.6-0.2-1.1-0.2
		c-0.5,0-0.9,0.1-1.1,0.2c0-0.9,0-1.8,0-2.7h2.2V32.4z"/>
	<path id="XMLID_162_" stroke="#000000" stroke-width="0.5" stroke-miterlimit="10" d="M95.6,43.4c-0.2-0.1-0.6-0.2-1.1-0.2
		c-0.5,0-0.9,0.1-1.1,0.2c0-0.9,0-1.8,0-2.7h2.2V43.4z"/>
	<path id="XMLID_164_" stroke="#000000" stroke-width="0.5" stroke-miterlimit="10" d="M65.6,21.4c-0.2-0.1-0.6-0.2-1.1-0.2
		c-0.5,0-0.9,0.1-1.1,0.2c0-0.9,0-1.8,0-2.7h2.2V21.4z"/>
	<path id="XMLID_165_" stroke="#000000" stroke-width="0.5" stroke-miterlimit="10" d="M55.6,33.7c-0.2-0.1-0.6-0.2-1.1-0.2
		c-0.5,0-0.9,0.1-1.1,0.2c0-0.9,0-1.8,0-2.7h2.2V33.7z"/>
	<path id="XMLID_166_" stroke="#000000" stroke-width="0.5" stroke-miterlimit="10" d="M35.6,21.4c-0.2-0.1-0.6-0.2-1.1-0.2
		c-0.5,0-0.9,0.1-1.1,0.2c0-0.9,0-1.8,0-2.7h2.2V21.4z"/>
	<path id="XMLID_167_" stroke="#000000" stroke-width="0.5" stroke-miterlimit="10" d="M11.6,43.4c-0.2-0.1-0.6-0.2-1.1-0.2
		c-0.5,0-0.9,0.1-1.1,0.2c0-0.9,0-1.8,0-2.7h2.2V43.4z"/>
	<path id="XMLID_148_" stroke="#000000" stroke-width="0.5" stroke-miterlimit="10" d="M385.6,26c-0.2-0.1-0.6-0.2-1.1-0.2
		c-0.5,0-0.9,0.1-1.1,0.2c0-0.9,0-1.8,0-2.7h2.2V26z"/>
	<path id="XMLID_149_" stroke="#000000" stroke-width="0.5" stroke-miterlimit="10" d="M375.6,39.4c-0.2-0.1-0.6-0.2-1.1-0.2
		c-0.5,0-0.9,0.1-1.1,0.2c0-0.9,0-1.8,0-2.7h2.2V39.4z"/>
	<path id="XMLID_150_" stroke="#000000" stroke-width="0.5" stroke-miterlimit="10" d="M345.6,24.4c-0.2-0.1-0.6-0.2-1.1-0.2
		c-0.5,0-0.9,0.1-1.1,0.2c0-0.9,0-1.8,0-2.7h2.2V24.4z"/>
	<path id="XMLID_151_" stroke="#000000" stroke-width="0.5" stroke-miterlimit="10" d="M355.6,31.2c-0.2-0.1-0.6-0.2-1.1-0.2
		c-0.5,0-0.9,0.1-1.1,0.2c0-0.9,0-1.8,0-2.7h2.2V31.2z"/>
	<path id="XMLID_15_" stroke="#000000" stroke-width="0.5" stroke-miterlimit="10" d="M905.6,32.4c-0.2-0.1-0.6-0.2-1.1-0.2
		c-0.5,0-0.9,0.1-1.1,0.2c0-0.9,0-1.8,0-2.7h2.2V32.4z"/>
	<path id="XMLID_20_" stroke="#000000" stroke-width="0.5" stroke-miterlimit="10" d="M925.6,32.4c-0.2-0.1-0.6-0.2-1.1-0.2
		c-0.5,0-0.9,0.1-1.1,0.2c0-0.9,0-1.8,0-2.7h2.2V32.4z"/>
	<path id="XMLID_67_" stroke="#000000" stroke-width="0.5" stroke-miterlimit="10" d="M935.6,32.4c-0.2-0.1-0.6-0.2-1.1-0.2
		c-0.5,0-0.9,0.1-1.1,0.2c0-0.9,0-1.8,0-2.7h2.2V32.4z"/>
	<path id="XMLID_70_" stroke="#000000" stroke-width="0.5" stroke-miterlimit="10" d="M945.6,21.4c-0.2-0.1-0.6-0.2-1.1-0.2
		c-0.5,0-0.9,0.1-1.1,0.2c0-0.9,0-1.8,0-2.7h2.2V21.4z"/>
	<path id="XMLID_72_" stroke="#000000" stroke-width="0.5" stroke-miterlimit="10" d="M955.6,22.4c-0.2-0.1-0.6-0.2-1.1-0.2
		c-0.5,0-0.9,0.1-1.1,0.2c0-0.9,0-1.8,0-2.7h2.2V22.4z"/>
	<path id="XMLID_74_" stroke="#000000" stroke-width="0.5" stroke-miterlimit="10" d="M975.6,21.4c-0.2-0.1-0.6-0.2-1.1-0.2
		c-0.5,0-0.9,0.1-1.1,0.2c0-0.9,0-1.8,0-2.7h2.2V21.4z"/>
	<path id="XMLID_117_" stroke="#000000" stroke-width="0.5" stroke-miterlimit="10" d="M1075.6,39.4c-0.2-0.1-0.6-0.2-1.1-0.2
		c-0.5,0-0.9,0.1-1.1,0.2c0-0.9,0-1.8,0-2.7h2.2V39.4z"/>
	<path id="XMLID_119_" stroke="#000000" stroke-width="0.5" stroke-miterlimit="10" d="M1095.6,23.4c-0.2-0.1-0.6-0.2-1.1-0.2
		c-0.5,0-0.9,0.1-1.1,0.2c0-0.9,0-1.8,0-2.7h2.2V23.4z"/>
	<path id="XMLID_121_" stroke="#000000" stroke-width="0.5" stroke-miterlimit="10" d="M1115.6,32.4c-0.2-0.1-0.6-0.2-1.1-0.2
		c-0.5,0-0.9,0.1-1.1,0.2c0-0.9,0-1.8,0-2.7h2.2V32.4z"/>
	<path id="XMLID_127_" stroke="#000000" stroke-width="0.5" stroke-miterlimit="10" d="M1164.6,24.4c-0.2-0.1-0.6-0.2-1.1-0.2
		c-0.5,0-0.9,0.1-1.1,0.2c0-0.9,0-1.8,0-2.7h2.2V24.4z"/>
	<path id="XMLID_131_" stroke="#000000" stroke-width="0.5" stroke-miterlimit="10" d="M1194.6,33.7c-0.2-0.1-0.6-0.2-1.1-0.2
		c-0.5,0-0.9,0.1-1.1,0.2c0-0.9,0-1.8,0-2.7h2.2V33.7z"/>
	<path id="XMLID_133_" stroke="#000000" stroke-width="0.5" stroke-miterlimit="10" d="M1214.6,32.4c-0.2-0.1-0.6-0.2-1.1-0.2
		c-0.5,0-0.9,0.1-1.1,0.2c0-0.9,0-1.8,0-2.7h2.2V32.4z"/>
	<path id="XMLID_135_" stroke="#000000" stroke-width="0.5" stroke-miterlimit="10" d="M1254.6,42.2c-0.2-0.1-0.6-0.2-1.1-0.2
		c-0.5,0-0.9,0.1-1.1,0.2c0-0.9,0-1.8,0-2.7h2.2V42.2z"/>
	<path id="XMLID_136_" stroke="#000000" stroke-width="0.5" stroke-miterlimit="10" d="M1274.6,33.7c-0.2-0.1-0.6-0.2-1.1-0.2
		c-0.5,0-0.9,0.1-1.1,0.2c0-0.9,0-1.8,0-2.7h2.2V33.7z"/>
	<path id="XMLID_77_" stroke="#000000" stroke-width="0.5" stroke-miterlimit="10" d="M995.6,32.4c-0.2-0.1-0.6-0.2-1.1-0.2
		c-0.5,0-0.9,0.1-1.1,0.2c0-0.9,0-1.8,0-2.7h2.2V32.4z"/>
	<path id="XMLID_80_" stroke="#000000" stroke-width="0.5" stroke-miterlimit="10" d="M1015.6,32.5c-0.2-0.1-0.6-0.2-1.1-0.2
		c-0.5,0-0.9,0.1-1.1,0.2c0-0.9,0-1.8,0-2.7h2.2V32.5z"/>
	<path id="XMLID_84_" stroke="#000000" stroke-width="0.5" stroke-miterlimit="10" d="M1055.6,23.7c-0.2-0.1-0.6-0.2-1.1-0.2
		c-0.5,0-0.9,0.1-1.1,0.2c0-0.9,0-1.8,0-2.7h2.2V23.7z"/>
</g>
</svg>
