<?xml version="1.0" encoding="utf-8"?>
<!-- Generator: Adobe Illustrator 19.0.0, SVG Export Plug-In . SVG Version: 6.00 Build 0)  -->
<svg version="1.1" id="Layer_2" xmlns="http://www.w3.org/2000/svg" xmlns:xlink="http://www.w3.org/1999/xlink" x="0px" y="0px"
	 viewBox="0 0 67 118" enable-background="new 0 0 67 118" xml:space="preserve">
<path id="XMLID_24_" fill="#FFFFFF" d="M40.4,18.6c0.1,4,1.2,7.6,2.8,10.3c-1.4,2.1-2.8,4.3-4.2,6.4c0.4,1,0.8,2.1,1.2,3.1
	c0.5,1.3,1,2.6,1.4,3.8c1.9-3,3.7-6.1,5.6-9.1c1.3,0.8,2.7,1.2,4.2,1.2c5.9-0.2,10.4-7.5,10.2-16.3c-0.2-8.9-5.2-15.9-11-15.8
	C44.7,2.4,40.2,9.8,40.4,18.6z M50.7,6.5c4.3-0.1,8,5.1,8.1,11.6c0.2,6.5-3.2,11.9-7.5,12c-4.3,0.1-8-5.1-8.1-11.6
	C43,12,46.4,6.6,50.7,6.5z"/>
<path id="XMLID_2_" fill="#FFFFFF" d="M34.3,53c-9.5,20.9-18.9,41.8-28.4,62.6c-0.5-1.5-1.1-3.9-1-6.8c0.1-3.6,1.1-6.3,1.7-7.7
	c5.3-13.3,8.5-20.2,8.5-20.2c2.7-5.8,4.2-9.1,6.3-13.9c2.2-5.1,3.6-8.7,6.4-14.7c1.3-2.9,2.5-5.3,3.2-6.8
	C32.1,47.9,33.2,50.5,34.3,53z"/>
<path id="XMLID_12_" fill="#FFFFFF" d="M7.9,26.1c4.8,7.5,12.6,11,17.6,7.9c0.7-0.5,1.3-1,1.8-1.7l35.9,80.8c0-0.2,0.1-0.4,0.1-0.7
	c0,0,0.1-0.5,0.1-1.1c0.3-3.6-0.6-7.3-0.6-7.3c-1.8-7.4-5.5-16.8-5.5-16.8c-2.8-7.2-1.3-3.8-6.4-17c-2-5.3-3-7.8-5.4-13.8
	c-1.9-4.9-4.6-11.8-7.9-20.4c-1.5-1.2-3-2.3-4.5-3.5l-3.9-5.2c0.4-3.8-0.7-8.4-3.4-12.6C21,7.2,13.1,3.7,8.2,6.8
	C3.3,10,3.1,18.6,7.9,26.1z M37.5,41.1c0.7,1,0.5,2.4-0.4,3.1s-2.4,0.5-3.1-0.4c-0.7-1-0.5-2.4,0.4-3.1S36.8,40.1,37.5,41.1z
	 M10.5,10.4c3.6-2.3,9.4,0.3,13,5.8c3.5,5.5,3.4,11.9-0.2,14.2c-3.6,2.3-9.4-0.3-13-5.8C6.7,19.1,6.8,12.7,10.5,10.4z"/>
<path id="XMLID_8_" fill="#FFFFFF" d="M64.6,86.9"/>
</svg>
