<?xml version="1.0" encoding="utf-8"?>
<!-- Generator: Adobe Illustrator 19.0.0, SVG Export Plug-In . SVG Version: 6.00 Build 0)  -->
<svg version="1.1" xmlns="http://www.w3.org/2000/svg" xmlns:xlink="http://www.w3.org/1999/xlink" x="0px" y="0px"
	 viewBox="0 0 200 200" enable-background="new 0 0 200 200" xml:space="preserve">
<g id="Layer_3">
</g>
<g id="Layer_2">
	<path id="XMLID_24_" fill="#FFFFFF" d="M301.7,31.7c0.2,6.5,1.9,12.5,4.6,17c-2.3,3.5-4.6,7-6.9,10.5c0.7,1.7,1.3,3.4,2,5.1
		c0.8,2.1,1.6,4.2,2.4,6.3c3.1-5,6.1-10,9.2-14.9c2.1,1.3,4.4,2,6.9,1.9c9.6-0.3,17.1-12.3,16.7-26.9c-0.4-14.6-8.5-26.2-18.1-25.9
		C308.8,5.1,301.3,17.1,301.7,31.7z M318.6,11.8c7.1-0.2,13.1,8.4,13.4,19.1c0.3,10.7-5.2,19.6-12.3,19.8
		c-7.1,0.2-13.1-8.4-13.4-19.1C306,20.8,311.5,12,318.6,11.8z"/>
	<path id="XMLID_2_" fill="#FFFFFF" d="M291.7,88.2c-15.6,34.3-31.1,68.7-46.7,103c-0.8-2.5-1.8-6.4-1.7-11.3
		c0.1-5.9,1.8-10.3,2.8-12.7c8.7-21.8,14-33.3,14-33.3c4.4-9.5,6.9-14.9,10.3-22.8c3.6-8.4,5.9-14.3,10.5-24.2
		c2.2-4.8,4.1-8.7,5.3-11.2C288.1,79.9,289.9,84.1,291.7,88.2z"/>
	<path id="XMLID_12_" fill="#FFFFFF" d="M248.2,43.9c7.8,12.3,20.8,18.1,28.9,12.9c1.2-0.8,2.2-1.7,3-2.8l59,132.9
		c0.1-0.3,0.1-0.7,0.2-1.2c0,0,0.1-0.9,0.2-1.8c0.4-5.9-1.1-12-1.1-12c-3-12.2-9-27.6-9-27.6c-4.6-11.8-2.1-6.3-10.5-28
		c-3.3-8.7-5-12.8-8.8-22.6c-3.1-8-7.6-19.5-13-33.6c-2.5-1.9-5-3.8-7.5-5.7l-6.5-8.6c0.7-6.2-1.1-13.7-5.6-20.7
		c-7.8-12.3-20.8-18.1-28.9-12.9C240.6,17.5,240.4,31.7,248.2,43.9z M296.9,68.6c1.2,1.6,0.9,3.9-0.7,5.1s-3.9,0.9-5.1-0.7
		c-1.2-1.6-0.9-3.9,0.7-5.1C293.4,66.6,295.7,67,296.9,68.6z M252.5,18.2c6-3.8,15.5,0.4,21.3,9.5c5.8,9.1,5.6,19.5-0.4,23.3
		c-6,3.8-15.5-0.5-21.3-9.5C246.3,32.4,246.5,22,252.5,18.2z"/>
	<path id="XMLID_8_" fill="#FFFFFF" d="M262.5,129.3"/>
	<path id="XMLID_14_" fill="#FFFFFF" d="M423.3,40.4c-7.2-9.2-17-14.9-27.9-14.9c-21.7,0-39.5,22.8-39.5,50.8v95.7
		c0,4.3,0.4,8.4,1.2,12.4h76.6c0.8-4,1.2-8.2,1.2-12.4V76.2C434.9,62.3,430.5,49.6,423.3,40.4z M419.5,144.9h-48.1
		c-0.6,0-1.1-0.5-1.1-1.1c0-0.6,0.5-1.1,1.1-1.1h48.1c0.6,0,1.1,0.5,1.1,1.1C420.5,144.4,420.1,144.9,419.5,144.9z M419.5,136.7
		h-48.1c-0.6,0-1.1-0.5-1.1-1.1c0-0.6,0.5-1.1,1.1-1.1h48.1c0.6,0,1.1,0.5,1.1,1.1C420.5,136.2,420.1,136.7,419.5,136.7z
		 M419.5,126.5h-48.1c-0.6,0-1.1-0.5-1.1-1.1s0.5-1.1,1.1-1.1h48.1c0.6,0,1.1,0.5,1.1,1.1S420.1,126.5,419.5,126.5z"/>
	<path id="XMLID_18_" fill="#8A181B" d="M422.7,71.5c0,7.7-0.5,15.1-1.3,22c-6.8-1.4-15.7-2.6-26-2.6c-10.4,0-19.2,1.2-26,2.6
		c-0.3-2.8-0.7-6.5-1-10.7c-0.2-3.7-0.3-7.4-0.3-11.3c0-39.7,12.2-71.8,27.3-71.8S422.7,31.8,422.7,71.5z"/>
	<polygon id="XMLID_3_" fill="#FFFFFF" points="410,29.9 407,23.9 401.2,27.2 405.9,22.5 401,18 406.9,21.1 409.7,15 408.6,21.6 
		415.2,22.3 408.6,23.3 	"/>
	<polygon id="XMLID_1_" fill="#FFFFFF" points="145.6,146.2 136.6,143.8 167,4.5 186.2,9.4 	"/>
	<polygon id="XMLID_4_" fill="#8A181B" points="167,4.5 161.8,28.4 179.6,32.9 186.6,9.5 	"/>
	<polygon id="XMLID_5_" fill="#8A181B" points="136.5,144.2 145.8,146.6 146.3,144.5 137,142.2 	"/>
	<polygon id="XMLID_9_" fill="#8A181B" points="139.5,143.9 130.5,186.2 142.7,144.7 	"/>
	<path id="XMLID_6_" fill="#FFFFFF" d="M118.3,195.8C101.4,180,79.5,166.4,56.5,169c-4,0.4-7.9,1.3-11.8,1.6
		c-10.6,0.8-21.4-3.2-29.1-10.5c4.1,6.5,11.2,10.5,18.7,12.3s15.2,1.4,22.8,0.6c6.3-0.6,12.8-1.5,18.7,0.6c4.3,1.5,7.8,4.5,11.5,7.2
		c8.9,6.4,18.9,11.2,29.4,14.1"/>
</g>
</svg>
