<?xml version="1.0" encoding="utf-8"?>
<!-- Generator: Adobe Illustrator 19.0.0, SVG Export Plug-In . SVG Version: 6.00 Build 0)  -->
<svg version="1.1" xmlns="http://www.w3.org/2000/svg" xmlns:xlink="http://www.w3.org/1999/xlink" x="0px" y="0px"
	 viewBox="0 0 200 200" enable-background="new 0 0 200 200" xml:space="preserve">
<g id="Layer_3">
</g>
<g id="Layer_2">
	<path id="XMLID_24_" fill="#FFFFFF" d="M270.1,33.7c0.2,6.5,1.9,12.5,4.6,17c-2.3,3.5-4.6,7-6.9,10.5c0.7,1.7,1.3,3.4,2,5.1
		c0.8,2.1,1.6,4.2,2.4,6.3c3.1-5,6.1-10,9.2-14.9c2.1,1.3,4.4,2,6.9,1.9c9.6-0.3,17.1-12.3,16.7-26.9c-0.4-14.6-8.5-26.2-18.1-25.9
		C277.2,7.1,269.7,19.1,270.1,33.7z M287,13.7c7.1-0.2,13.1,8.4,13.4,19.1c0.3,10.7-5.2,19.6-12.3,19.8c-7.1,0.2-13.1-8.4-13.4-19.1
		C274.4,22.8,279.9,13.9,287,13.7z"/>
	<path id="XMLID_2_" fill="#FFFFFF" d="M260.2,90.2c-15.6,34.3-31.1,68.7-46.7,103c-0.8-2.5-1.8-6.4-1.7-11.3
		c0.1-5.9,1.8-10.3,2.8-12.7c8.7-21.8,14-33.3,14-33.3c4.4-9.5,6.9-14.9,10.3-22.8c3.6-8.4,5.9-14.3,10.5-24.2
		c2.2-4.8,4.1-8.7,5.3-11.2C256.5,81.8,258.3,86,260.2,90.2z"/>
	<path id="XMLID_12_" fill="#FFFFFF" d="M216.7,45.9c7.8,12.3,20.8,18.1,28.9,12.9c1.2-0.8,2.2-1.7,3-2.8l59,132.9
		c0.1-0.3,0.1-0.7,0.2-1.2c0,0,0.1-0.9,0.2-1.8c0.4-5.9-1.1-12-1.1-12c-3-12.2-9-27.6-9-27.6c-4.6-11.8-2.1-6.3-10.5-28
		c-3.3-8.7-5-12.8-8.8-22.6c-3.1-8-7.6-19.5-13-33.6c-2.5-1.9-5-3.8-7.5-5.7l-6.5-8.6c0.7-6.2-1.1-13.7-5.6-20.7
		c-7.8-12.3-20.8-18.1-28.9-12.9C209.1,19.5,208.8,33.6,216.7,45.9z M265.4,70.6c1.2,1.6,0.9,3.9-0.7,5.1c-1.6,1.2-3.9,0.9-5.1-0.7
		c-1.2-1.6-0.9-3.9,0.7-5.1C261.8,68.6,264.2,68.9,265.4,70.6z M220.9,20.2c6-3.8,15.5,0.4,21.3,9.5c5.8,9.1,5.6,19.5-0.4,23.3
		c-6,3.8-15.5-0.5-21.3-9.5C214.8,34.4,214.9,24,220.9,20.2z"/>
	<path id="XMLID_8_" fill="#FFFFFF" d="M230.9,131.3"/>
	<path id="XMLID_14_" fill="#FFFFFF" d="M131.8,56c-7.2-9.2-17-14.9-27.9-14.9c-21.7,0-39.5,22.8-39.5,50.8v95.7
		c0,4.3,0.4,8.4,1.2,12.4h76.6c0.8-4,1.2-8.2,1.2-12.4V91.9C143.4,77.9,138.9,65.2,131.8,56z M127.9,160.5H79.8
		c-0.6,0-1.1-0.5-1.1-1.1c0-0.6,0.5-1.1,1.1-1.1h48.1c0.6,0,1.1,0.5,1.1,1.1C129,160.1,128.5,160.5,127.9,160.5z M127.9,152.3H79.8
		c-0.6,0-1.1-0.5-1.1-1.1c0-0.6,0.5-1.1,1.1-1.1h48.1c0.6,0,1.1,0.5,1.1,1.1C129,151.8,128.5,152.3,127.9,152.3z M127.9,142.2H79.8
		c-0.6,0-1.1-0.5-1.1-1.1c0-0.6,0.5-1.1,1.1-1.1h48.1c0.6,0,1.1,0.5,1.1,1.1C129,141.7,128.5,142.2,127.9,142.2z"/>
	<path id="XMLID_18_" fill="#8A181B" d="M131.2,87.1c0,7.7-0.5,15.1-1.3,22c-6.8-1.4-15.7-2.6-26-2.6c-10.4,0-19.2,1.2-26,2.6
		c-0.3-2.8-0.7-6.5-1-10.7c-0.2-3.7-0.3-7.4-0.3-11.3c0-39.7,12.2-71.8,27.3-71.8S131.2,47.5,131.2,87.1z"/>
	<polygon id="XMLID_3_" fill="#FFFFFF" points="118.4,45.5 115.4,39.6 109.6,42.9 114.3,38.2 109.4,33.6 115.4,36.7 118.1,30.6 
		117.1,37.2 123.7,38 117.1,39 	"/>
</g>
</svg>
