<?xml version="1.0" encoding="utf-8"?>
<!-- Generator: Adobe Illustrator 19.0.0, SVG Export Plug-In . SVG Version: 6.00 Build 0)  -->
<svg version="1.1" id="Layer_2" xmlns="http://www.w3.org/2000/svg" xmlns:xlink="http://www.w3.org/1999/xlink" x="0px" y="0px"
	 viewBox="0 0 200 200" enable-background="new 0 0 200 200" xml:space="preserve">
<path id="XMLID_24_" fill="#FFFFFF" d="M149.5,147.8c-5.3-3.8-11.1-6-16.3-6.6c-1.4-3.9-2.8-7.9-4.2-11.8c-1.8-0.5-3.5-1-5.3-1.5
	c-2.2-0.6-4.3-1.3-6.5-1.9c2.1,5.4,4.3,10.9,6.4,16.3c-2.3,0.9-4.3,2.4-5.7,4.3c-5.6,7.8-0.5,21,11.4,29.5c11.9,8.5,26,9,31.6,1.2
	C166.4,169.5,161.3,156.3,149.5,147.8z M155.2,173.3c-4.1,5.8-14.5,5.4-23.3-0.9s-12.5-16-8.4-21.8c4.1-5.8,14.6-5.4,23.3,0.9
	S159.3,167.6,155.2,173.3z"/>
<path id="XMLID_2_" fill="#FFFFFF" d="M110.4,105.8c-18-33.1-36-66.2-54-99.4c2.5,0.9,6.2,2.5,10,5.4c4.6,3.7,7.1,7.7,8.5,9.9
	C87,41.8,93,53,93,53c4.9,9.2,7.7,14.5,12,22c4.5,8,7.8,13.3,13,23c2.5,4.7,4.5,8.5,5.7,11C119.3,107.9,114.8,106.8,110.4,105.8z"/>
<path id="XMLID_12_" fill="#FFFFFF" d="M172,97.8c-14.5-1.2-27,5.7-27.7,15.3c-0.1,1.4,0,2.8,0.4,4.1L3.1,84
	c0.2,0.2,0.5,0.5,0.8,0.9c0,0,0.6,0.6,1.3,1.2c4.5,3.9,10.2,6.4,10.2,6.4c11.5,5,27.4,9.5,27.4,9.5c12.2,3.4,6.3,2.1,28.6,8.5
	c8.9,2.6,13.2,3.7,23.4,6.6c8.3,2.3,20.1,5.7,34.6,9.9c3-0.8,6-1.7,9-2.5l10.7,0c4.5,4.3,11.6,7.4,19.9,8c14.5,1.2,27-5.7,27.7-15.3
	C197.7,107.7,186.5,99,172,97.8z M122.9,121.8c-2,0-3.7-1.6-3.7-3.7c0-2,1.6-3.7,3.7-3.7c2,0,3.7,1.6,3.7,3.7
	C126.6,120.1,125,121.8,122.9,121.8z M190,116.7c-0.6,7.1-9.7,12.1-20.4,11.2c-10.7-0.9-18.9-7.3-18.4-14.4
	c0.6-7.1,9.7-12.1,20.4-11.2C182.3,103.2,190.5,109.7,190,116.7z"/>
<path id="XMLID_8_" fill="#FFFFFF" d="M95.3,57.7"/>
</svg>
